<svg width="50" height="46" viewBox="0 0 50 46" fill="none" xmlns="http://www.w3.org/2000/svg">
<mask id="path-1-inside-1_632_2" fill="white">
<path d="M35.7803 42.293C41.9984 38.6683 46.168 31.9993 46.168 24.3721C46.1678 15.2091 40.1503 7.42935 31.792 4.64941C31.757 4.63776 31.7216 4.62769 31.6865 4.61621C31.4934 4.55308 31.2991 4.49232 31.1035 4.43457C29.1708 3.86236 27.1222 3.55274 25 3.55273C13.3176 3.55278 3.84689 12.8718 3.84668 24.3672C3.84668 31.8926 7.90556 38.4854 13.9863 42.1416L11.7461 45.4629C4.69153 41.114 5.81587e-05 33.3972 0 24.6016C0.000292382 11.0155 11.193 0.00098172 25 0.000976562C38.8069 0.00109101 49.9997 11.0156 50 24.6016C49.9999 33.4383 45.264 41.1859 38.1543 45.5234L35.7803 42.293Z"/>
</mask>
<path d="M35.7803 42.293C41.9984 38.6683 46.168 31.9993 46.168 24.3721C46.1678 15.2091 40.1503 7.42935 31.792 4.64941C31.757 4.63776 31.7216 4.62769 31.6865 4.61621C31.4934 4.55308 31.2991 4.49232 31.1035 4.43457C29.1708 3.86236 27.1222 3.55274 25 3.55273C13.3176 3.55278 3.84689 12.8718 3.84668 24.3672C3.84668 31.8926 7.90556 38.4854 13.9863 42.1416L11.7461 45.4629C4.69153 41.114 5.81587e-05 33.3972 0 24.6016C0.000292382 11.0155 11.193 0.00098172 25 0.000976562C38.8069 0.00109101 49.9997 11.0156 50 24.6016C49.9999 33.4383 45.264 41.1859 38.1543 45.5234L35.7803 42.293Z" fill="white"/>
<path d="M35.7803 42.293L30.7442 33.6536L21.137 39.2539L27.7222 48.2147L35.7803 42.293ZM46.168 24.3721H56.168V24.3718L46.168 24.3721ZM31.792 4.64941L28.6291 14.136L28.636 14.1383L31.792 4.64941ZM31.6865 4.61621L34.7999 -4.88677L34.793 -4.88903L31.6865 4.61621ZM31.1035 4.43457L28.2647 14.0232L28.2716 14.0252L31.1035 4.43457ZM25 3.55273L25 -6.44727H25L25 3.55273ZM3.84668 24.3672L-6.15332 24.367V24.3672H3.84668ZM13.9863 42.1416L22.2767 47.7335L28.1676 38.9999L19.1393 33.5715L13.9863 42.1416ZM11.7461 45.4629L6.49844 53.9754L14.6691 59.0123L20.0365 51.0548L11.7461 45.4629ZM0 24.6016L-10 24.6013V24.6016L0 24.6016ZM25 0.000976562L25.0001 -9.99902H25L25 0.000976562ZM50 24.6016L60 24.6016V24.6013L50 24.6016ZM38.1543 45.5234L30.0962 51.4452L35.5297 58.8388L43.3624 54.0601L38.1543 45.5234ZM35.7803 42.293L40.8164 50.9323C49.9334 45.6177 56.168 35.7548 56.168 24.3721H46.168H36.168C36.168 28.2438 34.0634 31.7188 30.7442 33.6536L35.7803 42.293ZM46.168 24.3721L56.168 24.3718C56.1677 10.6875 47.1854 -0.769424 34.948 -4.83952L31.792 4.64941L28.636 14.1383C33.1153 15.6281 36.1679 19.7307 36.168 24.3723L46.168 24.3721ZM31.792 4.64941L34.9549 -4.83722C34.8759 -4.86356 34.8095 -4.88469 34.764 -4.899C34.7206 -4.91265 34.6838 -4.92392 34.6743 -4.92685C34.6557 -4.93254 34.671 -4.92787 34.6864 -4.92308C34.7058 -4.91702 34.7468 -4.90417 34.7999 -4.88677L31.6865 4.61621L28.5731 14.1192C28.6437 14.1423 28.7023 14.1607 28.7394 14.1723C28.7582 14.1782 28.7741 14.1831 28.7845 14.1863C28.7933 14.189 28.804 14.1923 28.8043 14.1923C28.8073 14.1933 28.804 14.1923 28.7986 14.1906C28.7927 14.1888 28.7817 14.1853 28.7674 14.1808C28.7394 14.1721 28.6907 14.1566 28.6291 14.136L31.792 4.64941ZM31.6865 4.61621L34.793 -4.88903C34.5193 -4.9785 34.233 -5.06821 33.9354 -5.15608L31.1035 4.43457L28.2716 14.0252C28.3652 14.0529 28.4675 14.0847 28.58 14.1215L31.6865 4.61621ZM31.1035 4.43457L33.9424 -5.15401C31.1037 -5.99445 28.0995 -6.44726 25 -6.44727L25 3.55273L25 13.5527C26.1449 13.5527 27.238 13.7192 28.2647 14.0232L31.1035 4.43457ZM25 3.55273L25 -6.44727C7.94757 -6.44719 -6.153 7.1973 -6.15332 24.367L3.84668 24.3672L13.8467 24.3674C13.8468 18.5462 18.6877 13.5528 25 13.5527L25 3.55273ZM3.84668 24.3672H-6.15332C-6.15332 35.5968 -0.0840187 45.35 8.83339 50.7117L13.9863 42.1416L19.1393 33.5715C15.8951 31.6209 13.8467 28.1884 13.8467 24.3672L3.84668 24.3672ZM13.9863 42.1416L5.69595 36.5497L3.45572 39.871L11.7461 45.4629L20.0365 51.0548L22.2767 47.7335L13.9863 42.1416ZM11.7461 45.4629L16.9938 36.9504C12.7247 34.3187 10 29.7343 10 24.6015L0 24.6016L-10 24.6016C-9.99992 37.06 -3.34166 47.9093 6.49844 53.9754L11.7461 45.4629ZM0 24.6016L10 24.6018C10.0002 16.6893 16.5637 10.001 25 10.001L25 0.000976562L25 -9.99902C5.82228 -9.99902 -9.99958 5.34166 -10 24.6013L0 24.6016ZM25 0.000976562L24.9999 10.001C33.4363 10.001 39.9998 16.6895 40 24.6018L50 24.6016L60 24.6013C59.9996 5.34165 44.1776 -9.99886 25.0001 -9.99902L25 0.000976562ZM50 24.6016L40 24.6015C40 29.7574 37.2496 34.3613 32.9461 36.9867L38.1543 45.5234L43.3624 54.0601C53.2784 48.0105 59.9999 37.1191 60 24.6016L50 24.6016ZM38.1543 45.5234L46.2124 39.6017L43.8384 36.3712L35.7803 42.293L27.7222 48.2147L30.0962 51.4452L38.1543 45.5234Z" fill="white" mask="url(#path-1-inside-1_632_2)"/>
<mask id="path-3-inside-2_632_2" fill="white">
<path d="M24.9999 40.6992C15.7102 40.6992 8.17957 33.2886 8.17957 24.1475C8.17969 15.0065 15.7102 7.59668 24.9999 7.59668C34.2894 7.59681 41.8201 15.0065 41.8202 24.1475C41.8202 33.2885 34.2895 40.6991 24.9999 40.6992ZM24.8446 17.3828C26.5805 17.3828 27.988 15.9981 27.9882 14.29C27.9882 12.5819 26.5806 11.1973 24.8446 11.1973C23.1087 11.1974 21.702 12.5819 21.702 14.29C21.7021 15.9981 23.1088 17.3827 24.8446 17.3828ZM33.6805 26.0732C35.4162 26.073 36.823 24.6884 36.8231 22.9805C36.8231 21.2724 35.4163 19.8879 33.6805 19.8877C31.9446 19.8877 30.537 21.2723 30.537 22.9805C30.5371 24.6885 31.9447 26.0732 33.6805 26.0732ZM16.3495 26.0732C18.0853 26.0732 19.4929 24.6885 19.493 22.9805C19.493 21.2723 18.0854 19.8877 16.3495 19.8877C14.6135 19.8877 13.2059 21.2723 13.2059 22.9805C13.2061 24.6885 14.6136 26.0732 16.3495 26.0732Z"/>
</mask>
<path d="M24.9999 40.6992C15.7102 40.6992 8.17957 33.2886 8.17957 24.1475C8.17969 15.0065 15.7102 7.59668 24.9999 7.59668C34.2894 7.59681 41.8201 15.0065 41.8202 24.1475C41.8202 33.2885 34.2895 40.6991 24.9999 40.6992ZM24.8446 17.3828C26.5805 17.3828 27.988 15.9981 27.9882 14.29C27.9882 12.5819 26.5806 11.1973 24.8446 11.1973C23.1087 11.1974 21.702 12.5819 21.702 14.29C21.7021 15.9981 23.1088 17.3827 24.8446 17.3828ZM33.6805 26.0732C35.4162 26.073 36.823 24.6884 36.8231 22.9805C36.8231 21.2724 35.4163 19.8879 33.6805 19.8877C31.9446 19.8877 30.537 21.2723 30.537 22.9805C30.5371 24.6885 31.9447 26.0732 33.6805 26.0732ZM16.3495 26.0732C18.0853 26.0732 19.4929 24.6885 19.493 22.9805C19.493 21.2723 18.0854 19.8877 16.3495 19.8877C14.6135 19.8877 13.2059 21.2723 13.2059 22.9805C13.2061 24.6885 14.6136 26.0732 16.3495 26.0732Z" fill="white"/>
<path d="M24.9999 40.6992V41.6992H24.9999L24.9999 40.6992ZM8.17957 24.1475L7.17957 24.1474V24.1475H8.17957ZM24.9999 7.59668L24.9999 6.59668H24.9999V7.59668ZM41.8202 24.1475H42.8202V24.1474L41.8202 24.1475ZM24.8446 17.3828L24.8445 18.3828H24.8446V17.3828ZM27.9882 14.29L28.9882 14.2901V14.29H27.9882ZM24.8446 11.1973V10.1973H24.8445L24.8446 11.1973ZM21.702 14.29H20.702V14.2901L21.702 14.29ZM33.6805 26.0732V27.0732H33.6807L33.6805 26.0732ZM36.8231 22.9805L37.8231 22.9806V22.9805H36.8231ZM33.6805 19.8877L33.6807 18.8877H33.6805V19.8877ZM30.537 22.9805H29.537V22.9806L30.537 22.9805ZM16.3495 26.0732L16.3495 27.0732H16.3495L16.3495 26.0732ZM19.493 22.9805L20.493 22.9806V22.9805H19.493ZM16.3495 19.8877L16.3495 18.8877H16.3495V19.8877ZM13.2059 22.9805H12.2059V22.9806L13.2059 22.9805ZM24.9999 40.6992V39.6992C16.2472 39.6992 9.17957 32.7212 9.17957 24.1475H8.17957H7.17957C7.17957 33.8559 15.1731 41.6992 24.9999 41.6992V40.6992ZM8.17957 24.1475L9.17957 24.1475C9.17968 15.5739 16.2472 8.59668 24.9999 8.59668V7.59668V6.59668C15.1732 6.59668 7.1797 14.439 7.17957 24.1474L8.17957 24.1475ZM24.9999 7.59668L24.9999 8.59668C33.7524 8.5968 40.8201 15.574 40.8202 24.1475L41.8202 24.1475L42.8202 24.1474C42.8201 14.4391 34.8264 6.59681 24.9999 6.59668L24.9999 7.59668ZM41.8202 24.1475H40.8202C40.8202 32.7211 33.7524 39.6991 24.9999 39.6992L24.9999 40.6992L24.9999 41.6992C34.8265 41.6991 42.8202 33.8559 42.8202 24.1475H41.8202ZM24.8446 17.3828V18.3828C27.1174 18.3828 28.988 16.5657 28.9882 14.2901L27.9882 14.29L26.9882 14.29C26.9881 15.4305 26.0436 16.3828 24.8446 16.3828V17.3828ZM27.9882 14.29H28.9882C28.9882 12.0142 27.1174 10.1973 24.8446 10.1973V11.1973V12.1973C26.0437 12.1973 26.9882 13.1495 26.9882 14.29L27.9882 14.29ZM24.8446 11.1973L24.8445 10.1973C22.5716 10.1974 20.702 12.0146 20.702 14.29H21.702H22.702C22.702 13.1492 23.6459 12.1973 24.8447 12.1973L24.8446 11.1973ZM21.702 14.29L20.702 14.2901C20.7022 16.5653 22.5716 18.3827 24.8445 18.3828L24.8446 17.3828L24.8447 16.3828C23.646 16.3827 22.7021 15.4308 22.702 14.29L21.702 14.29ZM33.6805 26.0732L33.6807 27.0732C35.9534 27.0729 37.8229 25.2557 37.8231 22.9806L36.8231 22.9805L35.8231 22.9804C35.823 24.1211 34.879 25.0731 33.6804 25.0732L33.6805 26.0732ZM36.8231 22.9805H37.8231C37.8231 20.7051 35.9534 18.888 33.6807 18.8877L33.6805 19.8877L33.6804 20.8877C34.8792 20.8879 35.8231 21.8398 35.8231 22.9805H36.8231ZM33.6805 19.8877V18.8877C31.4078 18.8877 29.537 20.7047 29.537 22.9805H30.537H31.537C31.537 21.8399 32.4814 20.8877 33.6805 20.8877V19.8877ZM30.537 22.9805L29.537 22.9806C29.5372 25.2561 31.4078 27.0732 33.6805 27.0732V26.0732V25.0732C32.4816 25.0732 31.5371 24.121 31.537 22.9804L30.537 22.9805ZM16.3495 26.0732L16.3495 27.0732C18.6222 27.0732 20.4928 25.2561 20.493 22.9806L19.493 22.9805L18.493 22.9804C18.4929 24.1209 17.5484 25.0732 16.3495 25.0732L16.3495 26.0732ZM19.493 22.9805H20.493C20.493 20.7047 18.6222 18.8878 16.3495 18.8877L16.3495 19.8877L16.3495 20.8877C17.5486 20.8877 18.493 21.84 18.493 22.9805H19.493ZM16.3495 19.8877V18.8877C14.0767 18.8877 12.2059 20.7047 12.2059 22.9805H13.2059H14.2059C14.2059 21.8399 15.1503 20.8877 16.3495 20.8877V19.8877ZM13.2059 22.9805L12.2059 22.9806C12.2061 25.2561 14.0767 27.0732 16.3495 27.0732L16.3495 26.0732V25.0732C15.1505 25.0732 14.206 24.121 14.2059 22.9804L13.2059 22.9805Z" fill="white" mask="url(#path-3-inside-2_632_2)"/>
</svg>
